<svg width="30" height="30" viewBox="0 0 30 30" fill="none" xmlns="http://www.w3.org/2000/svg">
<path d="M22.6317 3.01334C21.5125 2.9525 20.33 3.11417 19.2567 3.4375C17.64 3.92417 16.1475 4.8225 14.9717 6.03667C14.9325 6.0775 14.8942 6.11834 14.855 6.16C13.4042 4.49584 11.4025 3.41834 9.18921 3.13084C6.44005 2.77334 3.55588 3.87084 1.82505 6.06C0.770881 7.395 0.181715 9.02084 0.145048 10.725C0.120048 11.8725 0.331715 13.0658 0.773381 14.1267C1.36171 15.5383 2.36171 16.73 3.35588 17.8758C4.17171 18.8167 5.11672 19.6292 6.06672 20.4308C8.56005 22.5333 11.1584 24.4958 13.8367 26.3575C14.1009 26.5408 14.365 26.7233 14.6309 26.9042C14.7309 26.9725 14.8475 27.0017 14.965 26.9992C15.0884 27.005 15.2109 26.9767 15.3159 26.9042C17.9775 25.0608 20.5942 23.1483 23.135 21.1417C24.0034 20.4558 24.8684 19.7558 25.6459 18.9667C26.5559 18.0425 27.4275 17.0367 28.1717 15.9742C29.7042 13.7858 30.3059 10.8683 29.5 8.28417C28.5625 5.2775 25.7517 3.18334 22.6317 3.01334Z" fill="#DD6635"/>
</svg>
