<svg width="24" height="24" viewBox="0 0 24 24" fill="none" xmlns="http://www.w3.org/2000/svg">
<g clip-path="url(#clip0_9_555)">
<path d="M10.272 1.14001L10.272 16.0707L2.62462 7.29268C2.48329 7.13001 2.23796 7.11068 2.07196 7.24801L0.143958 8.84601C-0.0260416 8.98668 -0.0487083 9.24001 0.094625 9.40801L11.7166 23.11C11.8826 23.3053 12.1846 23.3053 12.35 23.1094L23.9066 9.41335C24.0486 9.24468 24.0266 8.99268 23.8566 8.85201L21.9266 7.25068C21.7606 7.11268 21.5146 7.13335 21.3733 7.29601L13.7246 16.1273L13.7246 1.14001C13.7246 0.920681 13.5466 0.743347 13.328 0.743347L10.6693 0.743347C10.45 0.743347 10.272 0.920681 10.272 1.14001Z" fill="#DD6635"/>
</g>
<defs>
<clipPath id="clip0_9_555">
<rect width="24" height="24" fill="white"/>
</clipPath>
</defs>
</svg>
