<svg width="84" height="54" viewBox="0 0 84 54" fill="none" xmlns="http://www.w3.org/2000/svg">
<g clip-path="url(#clip0_82_1398)">
<path d="M83.959 9.89999H-0.367188V43.839H83.959V9.89999Z" fill="#111111"/>
<path d="M70.9945 17.8092V12.6144H56.5394L54.1621 29.969L51.8098 12.6145H46.597L47.1809 17.2453C46.5788 16.059 44.4446 12.6145 39.7479 12.6145C39.717 12.6125 34.528 12.6145 34.528 12.6145L34.5081 37.9102L30.7086 12.6145L23.8816 12.6105L19.951 38.8203L19.953 12.6143H13.4192L11.0637 27.3364L8.76935 12.6145H2.2334V41.1088H7.38033V27.3746L9.72156 41.1085H12.4579L14.7662 27.3746V41.1085H24.6886L25.2907 36.7239H29.2856L29.8856 41.1085L39.6271 41.1145H39.635V41.1085H39.6411H39.6471V31.8592L40.8414 31.6852L43.3137 41.1145H43.3198H48.3465H48.3524L48.3504 41.1085H48.3593H48.3654L45.1209 30.0569C46.7651 28.8408 48.6216 25.7523 48.1275 22.7978V22.7959C48.1334 22.8358 51.1899 41.1267 51.1899 41.1267L57.1825 41.1085L61.2773 15.2807V41.1086H70.9947V35.9838H66.3821V29.4489H70.9947V24.2461H66.3821V17.8092H70.9945ZM25.897 32.2054L27.3101 20.0236L28.7774 32.2054H25.897ZM40.8581 26.5805C40.462 26.7726 40.049 26.8687 39.6469 26.8687V17.7032C39.6539 17.7032 39.662 17.7013 39.6719 17.7013C40.075 17.6993 43.0803 17.8232 43.0803 22.2359C43.0803 24.5441 42.0582 25.9985 40.8581 26.5805ZM81.365 35.9798V41.1045H71.8855V12.6105H76.9895V35.9798H81.365Z" fill="#D9D9D9"/>
</g>
<defs>
<clipPath id="clip0_82_1398">
<rect width="83.7" height="54" fill="white" transform="translate(0.0498047)"/>
</clipPath>
</defs>
</svg>
