<svg width="63" height="54" viewBox="0 0 63 54" fill="none" xmlns="http://www.w3.org/2000/svg">
<g clip-path="url(#clip0_82_1412)">
<path d="M1.67266 38.0336L2.5406 36.7232L4.04561 37.135L3.06365 35.9387L3.90651 34.6451L2.44883 35.2153L1.43619 34.0219L1.52243 35.5714L0.109131 36.1056L1.58365 36.4922L1.67266 38.0336ZM1.46674 32.2609L2.56562 31.1287L3.9705 31.8186L3.2333 30.4638L4.30434 29.351L2.76865 29.6347L2.00367 28.2661L1.80058 29.8045L0.298396 30.0632L1.67266 30.7253L1.46674 32.2609ZM2.37365 26.5441L3.66451 25.6538L4.91639 26.5886L4.44344 25.1142L5.72034 24.2323L4.15128 24.2128L3.66451 22.7272L3.16372 24.2072L1.64192 24.1711L2.86608 25.0752L2.37365 26.5441ZM8.85004 15.8475L9.65682 17.1856L9.76814 15.6556L11.2787 15.2967L9.84043 14.6986L9.94339 13.1435L8.93364 14.323L7.53147 13.7166L8.3243 15.0185L7.31725 16.1898L8.85004 15.8475ZM27.4947 6.69483L28.6519 5.67112L29.9789 6.46948L29.3529 5.02846L30.5103 3.98244L28.9662 4.12431L28.3821 2.7222L28.0399 4.20502L26.5043 4.35802L27.8452 5.16474L27.4947 6.69483ZM5.36431 48.9332L5.67584 47.392L7.22535 47.2056L5.87057 46.4656L6.16267 44.955L5.02475 46.0231L3.64219 45.2999L4.30987 46.7022L3.19427 47.7341L4.7021 47.5393L5.36431 48.9332ZM12.7253 11.8665L13.265 13.3354L13.6712 11.8442L15.2179 11.7914L13.916 10.9289L14.3193 9.41275L13.1036 10.3726L11.8406 9.52407L12.3636 10.954L11.159 11.9083L12.7253 11.8665ZM17.2988 8.67844L17.5409 10.2224L18.2337 8.83703L19.7609 9.08186L18.6426 7.98298L19.327 6.57527L17.9387 7.28752L16.8705 6.21371L17.1208 7.71042L15.7494 8.42814L17.2988 8.67844ZM22.3369 7.98291L23.2717 6.75329L24.7321 7.28186L23.8447 5.99101L24.7822 4.74472L23.2883 5.17033L22.4454 3.91569L22.4008 5.43742L20.9153 5.86856L22.3897 6.41662L22.3369 7.98291ZM2.61013 42.1787L2.98853 43.6753L3.58945 42.2149L5.15569 42.329L3.9595 41.3468L4.53811 39.9169L3.21947 40.7514L1.99814 39.7722L2.38201 41.28L1.08846 42.0757L2.61013 42.1787ZM4.3572 21.1332L5.79552 20.4961L6.83871 21.6618L6.6607 20.1261L8.0711 19.5002L6.54384 19.1885L6.34911 17.6335L5.57288 18.9828L4.09012 18.66L5.11389 19.7895L4.3572 21.1332ZM49.1632 11.6718L49.5639 13.1629L50.1229 11.7052L51.6808 11.747L50.4708 10.7761L51.0215 9.36007L49.7448 10.1975L48.5429 9.22933L48.9378 10.7482L47.6219 11.6023L49.1632 11.6718ZM51.6029 15.0769L53.108 15.4302L53.2109 16.9742L54.0289 15.6417L55.5562 15.9894L54.5518 14.8043L55.3614 13.519L53.9537 14.0949L52.9493 12.9209L53.0522 14.4871L51.6029 15.0769ZM44.5841 8.70622L45.2602 10.0889L45.5218 8.55605L47.0656 8.30846L45.6941 7.58232L45.9585 6.08844L44.8707 7.15665L43.4992 6.43893L44.1752 7.85494L43.0596 8.94269L44.5841 8.70622ZM56.2628 19.8841L56.0764 21.4113L57.1391 20.2624L58.5661 20.8939L57.8012 19.5391L58.8444 18.4347L57.3505 18.7379L56.5883 17.3803L56.3935 18.9382L54.8633 19.2359L56.2628 19.8841ZM38.0576 7.19002L39.5209 6.66987L40.4474 7.91339L40.4057 6.34169L41.8801 5.81029L40.3917 5.3596L40.364 3.83793L39.4988 5.09251L38.0214 4.64465L38.9589 5.91042L38.0576 7.19002ZM61.5541 35.2877L61.6625 33.741L60.6361 34.9456L59.1867 34.353L60.0184 35.6494L59.0252 36.84L60.5386 36.4506L61.3926 37.7609L61.4927 36.2114L62.9672 35.8471L61.5541 35.2877ZM60.5164 41.8975L62.0381 41.8252L60.7612 40.999L61.1478 39.508L59.9182 40.4898L58.6079 39.6331L59.181 41.0769L57.9708 42.0451L59.5371 41.9532L60.1268 43.3998L60.5164 41.8975ZM57.5062 47.136L57.8012 48.6772L58.48 47.2779L59.985 47.4949L58.8805 46.446L59.5565 45.0551L58.16 45.7811L57.0278 44.6907L57.3143 46.2013L55.9567 46.9301L57.5062 47.136ZM19.2713 37.4103C19.1517 37.313 17.6828 38.807 16.7229 39.85C16.3836 40.2117 16.1638 40.554 16.0331 40.7153C16.0331 40.7153 15.6102 41.4135 15.3848 41.7085C15.1567 42.0034 14.592 42.8352 14.3416 43.1969C14.2553 43.3164 14.0328 43.8422 13.5961 44.3875C13.3791 44.6601 13.1593 45.0162 12.7337 45.5616C12.1662 46.2904 11.7377 46.8884 11.8351 46.9692C11.8907 47.008 12.7253 45.9982 13.621 44.9133C13.9938 44.4599 14.3973 43.9953 14.7395 43.5528C14.9063 43.3388 15.2903 42.9799 15.4155 42.7962C15.6352 42.4707 15.8745 42.2231 15.9691 42.1452C16.467 41.7391 16.748 41.7086 16.9094 41.4777C16.9845 41.3637 17.972 39.878 18.3309 39.2743C18.6591 38.704 19.4686 37.5883 19.2713 37.4103ZM61.0365 27.9962L60.2631 29.3622L58.7302 29.0617L59.7957 30.1884L59.0531 31.532L60.4608 30.8644L61.5455 31.9854L61.3537 30.4387L62.7336 29.8044L61.2312 29.5261L61.0365 27.9962ZM57.267 23.9541L58.5272 24.847L58.0488 26.3214L59.3008 25.3895L60.5943 26.288L60.0991 24.8081L61.3315 23.9179L59.8153 23.9318L59.3227 22.4628L58.8305 23.9512L57.267 23.9541ZM32.7999 6.4334L34.1352 5.6461L35.2813 6.67264L34.9448 5.14808L36.2771 4.34972L34.7333 4.18836L34.4216 2.70001L33.8097 4.09376L32.2741 3.9463L33.4368 4.99791L32.7999 6.4334ZM33.0002 33.5544C33.1449 33.9802 33.6819 36.4895 33.8375 37.0097C33.9987 37.5272 34.1602 37.555 34.2493 37.758C34.5607 38.5398 35.0086 38.5704 35.2396 38.6343C35.8851 38.8319 35.9378 39.697 36.3495 40.4704C36.7335 41.1938 37.0952 41.8447 37.4346 42.6347C37.7739 43.4248 39.5099 47.7035 39.8076 48.3544C39.9076 48.5908 40.7339 48.5908 40.6448 48.3544C40.4363 47.8842 39.9605 46.7021 39.6656 45.5225C39.4793 44.7575 40.1943 45.2998 39.7379 44.073C39.5264 43.5111 39.126 42.952 38.9008 42.7237C38.6698 42.4985 38.4471 41.5275 38.2719 41.0934C38.0856 40.6705 38.18 40.6484 37.7963 39.6274C37.5095 38.8818 38.3137 39.1322 37.863 37.9832C37.5709 37.235 36.0854 34.531 35.9129 34.2528C35.8294 34.0997 35.5429 33.6323 35.1895 33.0787C34.8557 32.553 34.5804 31.991 34.4217 31.7461C34.1129 31.2511 33.5454 30.166 33.2255 29.7154C32.9085 29.2619 32.5133 28.2659 32.3492 28.433C32.188 28.5804 32.8276 30.0742 33.0892 31.0257C33.3646 31.9744 33.1643 32.3611 33.0002 32.6308C32.8471 32.898 32.8471 33.0761 33.0002 33.5544ZM43.079 41.2994C43.516 42.0256 43.6328 41.8809 43.8136 41.8893C44.2253 41.9005 45.1461 42.8909 45.3298 43.1606C45.505 43.4333 46.9876 44.9105 47.3689 45.2722C47.5358 45.4306 48.7098 47.3279 48.8599 47.1918C49.0186 47.0553 48.4094 46.1347 48.3175 45.9286C48.2342 45.7283 47.8947 45.4306 47.7304 44.9996C47.5775 44.5766 46.8793 43.5111 46.6513 43.1747C46.4257 42.8352 46.0585 42.084 45.6579 41.6084C45.288 41.1909 45.5829 41.077 45.2018 40.7099C44.9708 40.4928 44.2532 39.8556 44.0918 39.7221C43.9388 39.583 43.3518 39.0629 43.0152 38.7708C42.6812 38.487 41.8801 37.9305 41.908 37.5746C41.9189 37.2099 41.7437 36.5175 41.4739 36.2865C41.2791 36.1196 40.7061 35.196 40.0497 34.6618C39.7185 34.3836 39.0119 33.6492 38.4667 33.0122C37.9575 32.4056 37.5737 31.852 37.4568 31.9299C37.2844 32.0413 38.0495 33.1095 38.1272 33.2376C38.2079 33.3598 39.0926 34.8899 39.176 35.2905C39.268 35.6968 40.9176 38.4731 41.2709 39.3354C41.4739 39.839 42.6033 40.5122 43.079 41.2994ZM50.2843 43.9841C50.3399 43.9173 50.1813 43.7114 50.0952 43.5557C50.0005 43.3999 49.4386 42.7767 49.3328 42.6015C49.2411 42.4374 48.5123 41.3997 48.2561 41.0603C47.8001 40.476 48.2173 40.2618 47.978 39.9003C47.8806 39.7416 47.2965 39.0377 46.6176 38.3423C46.2671 37.9945 45.8776 37.6579 45.5467 37.3602C45.0097 36.8818 44.6036 36.5257 44.5369 36.5841C44.4422 36.6787 44.7593 37.0598 44.8957 37.235C45.0319 37.4018 45.2462 37.7106 45.53 38.0473C45.9889 38.5955 45.5633 39.0098 46.0027 39.4466C46.0751 39.519 47.288 40.8765 47.5859 41.127C48.0281 41.5219 49.6082 43.397 49.7195 43.4999C49.906 43.6752 50.2314 44.0509 50.2843 43.9841ZM25.2746 35.0846C25.3637 34.8954 25.639 34.3112 25.6251 34.0776C25.6251 34.0359 25.5222 33.9635 25.4359 34.0496C25.0298 34.4503 24.2036 35.8802 23.8893 36.0416C23.1826 36.3837 22.8738 37.2128 22.6623 37.541C22.5121 37.7831 22.3174 38.1753 21.9808 38.6679C21.6859 39.0934 21.3493 39.7304 21.2241 39.9502C21.1017 40.1811 21.0571 40.3925 21.2852 40.3925C21.5134 40.3925 21.3354 40.7654 21.0571 41.1743C20.8986 41.4135 20.5064 42.5597 20.3923 42.8713C20.2421 43.2551 20.2643 43.7447 20.2114 43.9088C20.1586 44.062 19.4103 45.656 19.2155 46.0093C19.0931 46.232 19.1293 46.3209 19.0819 46.4433C19.0124 46.5963 19.0987 46.6408 19.2155 46.5295C19.3574 46.3876 20.1586 45.1718 20.4033 45.0273C20.6426 44.877 20.8624 44.6546 20.8985 44.1315C20.9347 43.6085 21.2742 43.4666 21.5273 43.1606C21.7916 42.8574 22.1393 42.4512 22.3257 42.0256C22.5009 41.5861 22.7263 41.9198 23.1325 41.2662C23.5386 40.6069 24.4511 38.9822 24.6598 38.6679C24.86 38.3533 24.7126 37.8999 24.6876 37.5244C24.6764 37.327 24.7042 36.84 24.8211 36.3226C24.938 35.8608 25.1522 35.3906 25.2746 35.0846ZM28.7688 22.6716C29.1053 22.6716 29.5978 22.0568 29.8648 21.5227C30.1403 20.944 30.2794 20.6186 30.6243 19.8785C30.6382 19.8396 30.6048 19.8396 30.5686 19.8396C30.1764 19.8396 29.7452 20.2402 29.4699 20.5629C29.1443 20.9635 28.6102 21.7175 28.5295 22.2599C28.4711 22.552 28.599 22.6716 28.7688 22.6716ZM37.4596 23.1918C37.8436 23.3865 38.3193 22.5408 38.7337 21.7703C39.1454 20.9941 39.4737 20.0315 39.126 19.9119C38.7337 19.7533 38.2357 20.51 37.8212 21.2834C37.4122 22.0568 37.1008 23.0194 37.4596 23.1918ZM22.6123 22.6716C22.9572 22.6716 23.4386 22.0568 23.7167 21.5227C23.9894 20.944 24.1341 20.6186 24.4679 19.8785C24.4846 19.8396 24.4511 19.8396 24.4205 19.8396C24.0255 19.8396 23.5943 20.2402 23.3217 20.5629C22.9962 20.9635 22.4565 21.7175 22.3758 22.2599C22.3175 22.552 22.4565 22.6716 22.6123 22.6716ZM18.84 15.6805C21.5107 15.8057 23.0824 17.116 23.0824 18.5209C23.0797 21.0331 19.096 21.4614 19.096 21.4614C18.4032 24.9417 15.6435 26.2686 13.7323 26.2492C11.1674 26.2297 11.2063 24.1516 11.2926 23.8845C11.4011 23.5757 11.5596 23.2948 11.8824 23.2948C12.2023 23.2948 12.4694 23.5562 12.4694 23.8845C12.4694 24.0821 12.372 24.2684 12.2023 24.3658C11.8657 24.5745 11.9296 24.836 11.9296 24.836C11.9296 25.9404 13.3568 26.0266 13.7324 26.0266C17.552 26.0266 17.1124 19.7338 20.4813 17.5945C20.6344 17.4916 20.754 17.5945 20.6594 17.7003C19.6079 19.0189 19.2128 21.1443 19.2128 21.1443C20.8375 21.1443 21.9113 19.5976 21.9113 18.5209C21.9113 16.6766 20.2505 15.9114 18.8401 15.9114C14.9063 15.9114 13.1982 18.66 13.1982 20.1567C13.1982 21.6562 14.1441 22.1986 14.8285 22.1986C15.7828 22.1986 16.0804 21.5616 15.9636 21.25C15.7744 20.7604 16.0358 20.3515 16.3308 20.3515C16.4476 20.3515 16.8399 20.332 16.8399 21.022C16.8399 21.6868 15.8968 22.3573 14.8535 22.3573C13.8242 22.3573 12.3192 21.8009 12.3192 20.1568C12.3191 16.824 16.4197 15.5581 18.84 15.6805ZM25.4638 19.7533C25.0382 20.7159 24.7238 21.4058 24.3315 22.3155C24.2982 22.4018 24.2675 22.552 24.3483 22.6076C24.4205 22.641 24.5041 22.641 24.5513 22.6076C25.0548 22.3656 25.4972 21.7786 25.845 21.1109L26.4652 19.7422H27.3388L27.0995 20.2596C27.0799 20.2874 27.0799 20.3041 27.0995 20.2874C27.3722 20.0816 27.6587 19.7728 28.0092 19.5808C28.1455 19.5168 28.471 19.5168 28.4375 19.7421C28.4209 19.9424 28.2679 20.0955 28.1817 20.2874C28.1316 20.4098 28.0787 20.5628 28.0955 20.6463C28.1316 20.738 28.2317 20.7881 28.3681 20.6852C28.5044 20.599 28.6101 20.5294 28.7354 20.4265C28.9523 20.215 29.2277 20.0175 29.5365 19.8535C30.1569 19.5669 30.9998 19.3805 31.6174 19.7728C31.1861 20.7381 30.8607 21.4558 30.4489 22.3655C30.3738 22.5213 30.435 22.5714 30.4851 22.6075C30.5379 22.6409 30.6381 22.6576 30.7772 22.5826C31.1165 22.4407 31.7175 21.7703 31.9567 21.25C32.1849 20.766 32.3907 20.2874 32.6327 19.7422H33.5314L33.2809 20.2708L33.317 20.2875C33.5564 20.0677 34.1823 19.567 34.6441 19.6727C34.9001 19.7255 35.0252 20.0315 35.0058 20.2597C35.2978 20.0455 35.5983 19.7895 36.0324 19.6838C36.6526 19.5308 36.8947 19.962 36.7028 20.3766C36.4608 20.9441 35.9822 22.0568 35.7068 22.63C35.6734 22.6884 35.6734 22.8163 35.7068 22.8442C35.7763 22.8998 35.8988 22.8442 35.9516 22.8163C36.2604 22.552 36.4303 22.3824 36.6693 22.0429C36.7361 21.442 37.0615 20.8885 37.5124 20.4267C37.9908 19.8953 38.7474 19.4808 39.4736 19.7256C39.7267 19.8091 39.8992 20.0677 39.9688 20.3238C40.0022 20.46 40.0355 20.5296 40.0355 20.6854C40.4166 20.9637 40.9146 20.5101 41.1178 20.1708C41.1735 20.0316 41.243 19.8786 41.2763 19.7729C41.4933 19.7895 41.9188 19.7729 42.172 19.7729L41.0509 22.3351C40.9788 22.4853 40.9619 22.5715 40.9619 22.6884C40.9619 22.783 41.0649 22.7997 41.1734 22.783C41.4822 22.7273 41.9856 22.1209 42.2387 21.6118C42.5225 20.9747 42.8036 20.4434 43.0818 19.8091H43.9887C43.627 20.6659 43.2179 21.5784 42.9232 22.2461C42.8536 22.3824 42.7731 22.5215 42.8174 22.7106C42.8536 22.7997 42.9733 22.783 43.0483 22.7496C43.4406 22.5215 44.1166 21.7704 44.3504 21.3057C44.5951 20.7549 44.7759 20.3432 45.0319 19.809H45.9639L45.7413 20.3432C46.089 20.0677 46.4617 19.7729 46.9098 19.7005C47.1155 19.6727 47.3716 19.6838 47.4913 19.8953C47.6304 20.1346 47.5468 20.3876 47.4439 20.6186C47.1879 21.2028 46.8901 21.8371 46.6343 22.4019C46.587 22.5409 46.5731 22.6717 46.6649 22.7273C46.8068 22.8163 47.4576 22.4185 47.7888 21.6952C48.0754 21.0609 48.2702 20.6853 48.526 20.0677H48.0476L48.1811 19.7895H48.6623L49.3494 18.2957H50.2761L49.6083 19.7895H50.3067L50.1758 20.0677H49.4886C49.0937 20.9051 48.7625 21.6117 48.4176 22.4019C48.2841 22.6717 48.145 23.1252 48.2173 23.4005C48.2703 23.5536 48.4594 23.5925 48.6318 23.5341C49.1604 23.3505 49.5221 22.8999 49.8308 22.4185C49.8476 22.3656 50.1284 22.4019 50.1062 22.4408C49.7417 23.1585 48.9546 23.8846 48.2006 23.8651C47.9754 23.8651 47.7304 23.726 47.5969 23.534C47.5331 23.4339 47.4914 23.3504 47.4578 23.2308C47.4105 23.0361 47.4246 22.8163 47.4578 22.6076C47.0489 22.9193 46.6567 23.2948 46.1392 23.4005C45.9138 23.4339 45.6246 23.3504 45.5718 23.1084C45.5384 22.9193 45.555 22.7105 45.6247 22.5409C45.9501 21.8371 46.2394 21.2028 46.5481 20.46C46.5733 20.4266 46.5481 20.3042 46.512 20.2876C46.4618 20.2403 46.309 20.2403 46.1727 20.3432C45.5384 20.8217 45.2128 21.442 44.9403 22.0762C44.7455 22.5019 44.5371 22.9331 44.3338 23.3504H43.4214C43.5271 23.0945 43.6801 22.7495 43.7997 22.4714C43.7997 22.4547 43.7831 22.4547 43.7831 22.4714C43.4076 22.8442 42.9234 23.2726 42.4478 23.4005C42.2557 23.4506 42.0637 23.3866 41.9664 23.2058C41.8579 23.0362 41.8273 22.783 41.919 22.5521C41.919 22.541 41.9108 22.541 41.8914 22.5521C41.5519 22.8999 41.221 23.2058 40.7646 23.3644C40.2444 23.5229 39.7771 23.1585 40.1053 22.4019C40.1944 22.1987 40.453 21.6284 40.7368 20.9441C40.5004 21.0414 40.211 21.0414 40.0553 20.9941C40.0357 20.9941 40.0357 20.9941 40.0357 21.0109C39.8353 21.9706 39.2651 22.8442 38.3889 23.2614C37.9605 23.4701 37.4736 23.5229 37.048 23.2308C36.8422 23.0945 36.7197 22.7607 36.7031 22.4713C36.2607 22.9192 35.757 23.4839 35.0728 23.3866C34.9698 23.3643 34.8837 23.2725 34.8308 23.178C34.6749 22.9193 34.7666 22.641 34.8641 22.4184C35.1925 21.7341 35.4622 21.0942 35.7905 20.3236C35.8433 20.2151 35.6958 20.1372 35.5902 20.1874C35.2647 20.3432 35.0643 20.499 34.8837 20.7771C34.7862 20.9273 34.6888 21.0998 34.611 21.2639C34.3076 21.9233 33.9906 22.6076 33.7151 23.2724H32.7832C33.2005 22.335 33.5928 21.4225 34.0044 20.4961C34.0434 20.4099 34.0213 20.2875 33.9711 20.2597C33.8904 20.2151 33.7431 20.2875 33.6483 20.3432C33.4258 20.4962 33.2283 20.6993 33.0809 20.9636C32.9251 21.2195 32.7833 21.4754 32.6747 21.7537L31.9793 23.2726H31.0695C31.1586 23.0723 31.3283 22.6717 31.4312 22.4714C31.4312 22.4547 31.4145 22.4408 31.4145 22.4547C30.9165 22.8664 30.2795 23.4005 29.8149 23.3115C29.6591 23.2948 29.5256 23.1585 29.4894 23.0195C29.4561 22.8442 29.4699 22.6884 29.5061 22.541C29.5061 22.5215 29.4894 22.5215 29.47 22.541C29.0721 22.9194 28.7161 23.2309 28.2153 23.3505C27.9287 23.4145 27.6589 23.2309 27.5671 23.0195C27.4391 22.783 27.4086 22.4019 27.6144 21.9706C27.7367 21.6953 27.8703 21.4059 28.04 21.1667C27.9398 21.2196 27.7367 21.2362 27.5976 21.2196C27.4808 21.2029 27.3556 21.1111 27.2944 21.0221C27.2221 20.9442 27.2054 20.7883 27.2054 20.6854C27.2221 20.666 27.1693 20.666 27.133 20.6854C26.8605 20.9053 26.7381 21.1668 26.6018 21.4561L25.8116 23.2448H24.8825L25.2247 22.4853C25.2415 22.4714 25.2247 22.4548 25.208 22.4714C24.724 22.8999 24.1453 23.3867 23.6779 23.2949C23.5444 23.2726 23.4025 23.1391 23.3691 23.0056C23.3358 22.8442 23.3496 22.6718 23.3691 22.5215H23.3358C22.9573 22.8999 22.5958 23.2058 22.1034 23.3115C21.8224 23.4005 21.5692 23.2309 21.4607 22.9916C21.3244 22.641 21.3745 22.2851 21.4969 21.9539C21.853 21.022 22.5123 20.3571 23.4025 19.8536C23.9671 19.5308 24.8462 19.4334 25.4638 19.7533ZM5.48946 34.147C5.48946 38.0779 6.53272 42.5068 8.39382 46.14C11.7572 43.002 20.5815 33.0427 21.5942 31.8854C23.1326 30.1245 23.7975 31.2455 24.6237 30.2607C25.066 29.721 25.3247 29.5152 25.5194 29.4067C25.8366 29.2175 26.1983 28.7669 26.3791 28.6333C26.5599 28.497 26.9689 27.9545 27.286 27.6819C27.606 27.4121 28.2319 27.0031 28.869 26.4634C29.5033 25.9181 30.5827 24.6551 31.7594 24.6551C33.1587 24.6551 33.743 25.6038 33.8681 25.7179C33.9682 25.8264 34.8307 26.5886 34.9697 26.7333C35.1227 26.9058 36.0463 27.6346 36.5471 27.6346C37.0423 27.6346 37.4096 28.1771 37.6766 28.447C38.2692 28.9866 40.7172 31.5599 41.5212 32.1052C41.8802 32.3527 42.2195 32.3083 42.4865 32.517C42.7621 32.7199 42.8983 32.8509 43.054 32.8981C43.2043 32.9398 43.73 32.8062 44.3421 33.5713C44.6259 33.766 44.701 33.7995 44.701 33.7995C44.701 33.7995 45.5327 34.5533 45.8305 35.0847C46.1003 35.5437 52.3012 43.7811 54.5212 46.7272C56.5798 42.9938 57.7567 38.7041 57.7567 34.1417C57.7567 19.7005 46.0502 8.00799 31.6175 8.00799C17.1847 8.01629 5.48946 19.7144 5.48946 34.147Z" fill="#111111"/>
<path d="M53.0022 50.2155V50.5078H53.5669V52.0545H53.9258V50.5078H54.4877V50.2155H53.0022ZM56.3906 50.2155L55.8926 51.5203L55.3807 50.2155H54.8661V52.0546H55.2V50.6162H55.2082L55.7646 52.0546H56.0122L56.5575 50.6162H56.5715V52.0546H56.9027V50.2155H56.3906Z" fill="#111111"/>
</g>
<defs>
<clipPath id="clip0_82_1412">
<rect width="62.1" height="54" fill="white" transform="translate(0.449951)"/>
</clipPath>
</defs>
</svg>
