<svg width="101" height="54" viewBox="0 0 101 54" fill="none" xmlns="http://www.w3.org/2000/svg">
<g clip-path="url(#clip0_82_1390)">
<path d="M75.8918 18.9759V20.9152H77.7854C78.6124 20.9152 79.1559 21.4367 79.4653 21.7738C79.7131 22.0515 85.1666 28.2348 85.2975 28.3974C85.4284 28.56 85.4284 28.5619 85.4284 28.665V31.7291C85.428 31.8695 85.414 32.0096 85.3866 32.1474C85.3478 32.2363 85.2901 32.3158 85.2176 32.3802C85.145 32.4446 85.0593 32.4924 84.9663 32.5204C84.7874 32.5428 84.6072 32.5541 84.4268 32.5541L82.5313 32.5518V34.4911H93.1643V32.5518H91.1634C90.9843 32.5526 90.8053 32.5412 90.6278 32.5177C90.535 32.49 90.4494 32.4423 90.3771 32.3779C90.3049 32.3135 90.2476 32.234 90.2095 32.1451C90.1816 32.0073 90.167 31.8673 90.1661 31.7267V28.6646C90.1543 28.564 90.1796 28.4625 90.2373 28.3792L96.137 21.6487C96.6783 21.0459 96.96 20.9148 97.67 20.9148H99.6271V18.9755H90.864V20.9109H92.1867C92.2576 20.9066 92.3282 20.9228 92.3901 20.9575C92.4521 20.9922 92.5028 21.0439 92.5362 21.1066C92.5696 21.1692 92.5843 21.2402 92.5786 21.3109C92.5729 21.3817 92.547 21.4493 92.5039 21.5058C92.4762 21.5455 88.8351 25.8269 88.7895 25.8686C88.744 25.9102 88.7144 25.9002 88.6807 25.8546C88.647 25.809 85.0496 21.5058 85.0496 21.5058C84.7958 21.1945 84.9942 20.9109 85.2917 20.9109H86.5807V18.9755L75.8918 18.9759Z" fill="#111111"/>
<path d="M49.8127 18.9758V20.9151H51.51C52.7355 20.9151 52.8191 21.5976 52.8191 22.1925V31.2689C52.8191 31.8122 52.8506 32.5579 52.0693 32.5579H49.975V34.4952H58.917V32.5579H56.7357C55.8651 32.5579 55.8253 32.1594 55.8154 31.3127V23.5369L68.0965 34.4952H71.2198L71.0552 22.1189C71.0711 21.2146 71.1266 20.9132 72.0626 20.9132H74.0197V18.9758H64.8976V20.9132H66.9008C67.821 20.9132 67.9753 21.2682 67.9873 22.1189L68.0965 28.5956L57.4356 18.9758H49.8127Z" fill="#111111"/>
<path d="M9.54642 18C7.62482 18 5.44146 18.3609 3.59721 19.1898C1.87591 19.9593 0.473889 21.1946 0.473889 23.2431C0.471274 24.3159 0.879257 25.349 1.61415 26.1306C2.1119 26.5907 2.91517 27.372 5.01326 27.8321C5.95125 28.0304 7.95615 28.3496 9.9531 28.5598C11.9501 28.77 13.8856 28.9565 14.6788 29.1687C15.3094 29.3293 16.3702 29.5475 16.3702 30.7373C16.3702 31.9272 15.2539 32.284 15.0595 32.3614C14.8652 32.4387 13.5244 33.0535 11.117 33.0535C9.52192 33.0092 7.94133 32.7374 6.42308 32.2463C5.52475 31.9251 4.58301 31.5027 3.7045 30.4298C3.34987 29.9246 3.15307 29.3256 3.13902 28.7086H0.957638V34.8166H3.38108V33.9896C3.38068 33.9283 3.39667 33.8679 3.42736 33.8148C3.45806 33.7617 3.50235 33.7177 3.5557 33.6874C3.60905 33.6571 3.66953 33.6416 3.73088 33.6424C3.79223 33.6432 3.85225 33.6604 3.90475 33.6922C5.04638 34.1889 6.23388 34.5728 7.45026 34.8383C8.72339 35.104 9.54652 35.2965 11.129 35.2965C12.7988 35.3282 14.463 35.0933 16.0588 34.6005C17.1184 34.3099 18.1126 33.8191 18.9877 33.1546C19.4798 32.7766 19.8776 32.2895 20.1498 31.7318C20.422 31.1741 20.5612 30.5608 20.5563 29.9402C20.5647 28.7611 20.1098 27.6259 19.2894 26.779C18.8332 26.3363 18.3046 25.9749 17.7266 25.7103C17.1052 25.4296 16.4601 25.2045 15.7989 25.038C14.5416 24.7306 11.718 24.3459 10.3675 24.211C8.95162 24.0643 6.49451 23.8599 5.51289 23.5565C5.21543 23.4633 4.60851 23.176 4.60851 22.472C4.60851 21.9703 4.88617 21.5458 5.4335 21.2027C6.30406 20.6574 8.06109 20.3181 9.89345 20.3181C11.6671 20.2967 13.4262 20.6402 15.0614 21.3274C15.5007 21.5189 15.9138 21.7656 16.2908 22.0614C16.9053 22.5863 17.3309 23.2981 17.5023 24.0879H19.4598V18.7715H17.2784V19.3881C17.2784 19.5865 17.0801 19.8483 16.6835 19.6322C15.6999 19.1205 12.9355 18.0139 9.54642 18Z" fill="#111111"/>
<path d="M35.7984 18.0002C32.3617 18.0002 28.7127 19.1899 26.6503 21.0639C25.8641 21.7797 25.2364 22.6523 24.8078 23.6253C24.3791 24.5984 24.1589 25.6504 24.1614 26.7137C24.1491 27.7814 24.3648 28.8394 24.794 29.8171C25.2232 30.7947 25.856 31.6696 26.6503 32.3832C28.8713 34.3802 32.2031 35.4512 35.7984 35.4512C39.3996 35.4512 42.8026 34.3921 44.9701 32.3832C45.7408 31.6529 46.3556 30.774 46.7775 29.7996C47.1994 28.8252 47.4196 27.7755 47.4249 26.7137C47.4355 25.653 47.2224 24.6019 46.7994 23.6292C46.3764 22.6564 45.7531 21.7837 44.9701 21.0681C42.6439 18.9581 39.5999 18.0002 35.7984 18.0002ZM35.7984 20.2687C37.6783 20.2687 39.4888 20.9451 40.7084 22.1449C41.8883 23.307 42.5048 24.9489 42.5048 26.7059C42.5048 28.5462 41.9439 30.0375 40.7084 31.267C39.4729 32.4965 37.7041 33.1548 35.7984 33.1548C33.9065 33.1548 32.0998 32.4826 30.8802 31.267C30.2969 30.6618 29.839 29.9473 29.5327 29.1646C29.2264 28.3818 29.0778 27.5463 29.0954 26.7059C29.0954 24.9569 29.7042 23.3089 30.8802 22.1449C32.0998 20.9392 33.9184 20.2687 35.7984 20.2687Z" fill="#111111"/>
</g>
<defs>
<clipPath id="clip0_82_1390">
<rect width="99.9" height="54" fill="white" transform="translate(0.149902)"/>
</clipPath>
</defs>
</svg>
