<svg width="8" height="8" viewBox="0 0 8 8" fill="none" xmlns="http://www.w3.org/2000/svg">
<path fill-rule="evenodd" clip-rule="evenodd" d="M3.83854 0C3.5624 0 3.33854 0.223858 3.33854 0.5V2.39347L2.00399 1.05892C1.80873 0.86366 1.49215 0.86366 1.29688 1.05892L1.06861 1.2872C0.873343 1.48246 0.873343 1.79905 1.06861 1.99431L2.41284 3.33854H0.5C0.223857 3.33854 0 3.5624 0 3.83854V4.16138C0 4.43752 0.223857 4.66138 0.5 4.66138H2.39347L1.05868 5.99617C0.863416 6.19143 0.863416 6.50802 1.05868 6.70328L1.28696 6.93156C1.48222 7.12682 1.7988 7.12682 1.99406 6.93156L3.33854 5.58708V7.5C3.33854 7.77614 3.5624 8 3.83854 8H4.16138C4.43752 8 4.66138 7.77614 4.66138 7.5V5.58708L6.01835 6.94406C6.21361 7.13932 6.5302 7.13932 6.72546 6.94405L6.95374 6.71578C7.149 6.52051 7.149 6.20393 6.95374 6.00867L5.60644 4.66138H7.5C7.77614 4.66138 8 4.43752 8 4.16138V3.83854C8 3.5624 7.77614 3.33854 7.5 3.33854H5.58708L6.94381 1.98181C7.13907 1.78655 7.13907 1.46996 6.94381 1.2747L6.71553 1.04642C6.52027 0.851162 6.20369 0.851162 6.00843 1.04642L4.66138 2.39347V0.5C4.66138 0.223858 4.43752 0 4.16138 0H3.83854Z" fill="#DD6635"/>
</svg>
