<svg width="94" height="54" viewBox="0 0 94 54" fill="none" xmlns="http://www.w3.org/2000/svg">
<g clip-path="url(#clip0_82_1381)">
<path d="M58.0453 37.4603C52.6304 41.3244 44.7818 43.386 38.0243 43.386C28.5493 43.386 20.0193 39.9931 13.566 34.3502C13.059 33.9064 13.5132 33.3017 14.1217 33.6472C21.086 37.5702 29.6971 39.9303 38.5922 39.9303C44.5912 39.9303 51.1905 38.7287 57.2584 36.2351C58.1751 35.8581 58.9417 36.8163 58.0453 37.4603Z" fill="#111111"/>
<path d="M60.2965 34.9667C59.6069 34.1107 55.7212 34.5623 53.977 34.7625C53.4457 34.8254 53.3646 34.3777 53.8432 34.0557C56.938 31.9469 62.0163 32.5556 62.6084 33.2625C63.2006 33.9732 62.4543 38.9015 59.5461 41.2537C59.0999 41.615 58.674 41.4226 58.8728 40.9435C59.5258 39.3649 60.9901 35.8267 60.2965 34.9667Z" fill="#111111"/>
<path d="M54.0985 19.1688V17.119C54.0985 16.8087 54.3419 16.6006 54.634 16.6006H64.1131C64.4173 16.6006 64.6607 16.8127 64.6607 17.119V18.8743C64.6566 19.1688 64.4011 19.5537 63.9468 20.1623L59.0348 26.9519C60.8601 26.9088 62.7867 27.1719 64.4416 28.075C64.8148 28.2792 64.9162 28.5777 64.9446 28.8722V31.0595C64.9446 31.3579 64.6039 31.7074 64.2469 31.5268C61.3306 30.0464 57.457 29.8853 54.2324 31.5425C53.9039 31.7153 53.5591 31.3697 53.5591 31.0713V28.9939C53.5591 28.6602 53.5631 28.0908 53.9079 27.5842L59.5986 19.6832H54.6461C54.3419 19.6832 54.0985 19.4751 54.0985 19.1688Z" fill="#111111"/>
<path d="M19.5206 31.9588H16.6367C16.3609 31.9391 16.1419 31.7389 16.1216 31.4836V17.1543C16.1216 16.8677 16.369 16.6399 16.6773 16.6399H19.3665C19.6463 16.6517 19.8694 16.8598 19.8897 17.119V18.9921H19.9424C20.6441 17.1818 21.9624 16.3375 23.739 16.3375C25.5439 16.3375 26.6715 17.1818 27.4828 18.9921C28.1804 17.1818 29.7663 16.3375 31.4659 16.3375C32.6746 16.3375 33.9969 16.8205 34.804 17.9044C35.7167 19.1099 35.5301 20.8613 35.5301 22.3967L35.526 31.4404C35.526 31.7271 35.2786 31.9588 34.9703 31.9588H32.0905C31.8025 31.9391 31.5713 31.7153 31.5713 31.4404V23.8458C31.5713 23.241 31.6281 21.7331 31.4902 21.1598C31.2752 20.1977 30.6303 19.9267 29.7947 19.9267C29.0971 19.9267 28.367 20.3783 28.0709 21.1009C27.7748 21.8234 27.8032 23.0329 27.8032 23.8458V31.4404C27.8032 31.7271 27.5558 31.9588 27.2475 31.9588H24.3677C24.0756 31.9391 23.8485 31.7153 23.8485 31.4404L23.8444 23.8458C23.8444 22.2475 24.1162 19.8953 22.0678 19.8953C19.9952 19.8953 20.0763 22.1886 20.0763 23.8458V31.4404C20.0763 31.7271 19.8289 31.9588 19.5206 31.9588Z" fill="#111111"/>
<path d="M72.8218 16.3375C77.101 16.3375 79.4171 19.8953 79.4171 24.4191C79.4171 28.7898 76.8576 32.2572 72.8218 32.2572C68.6197 32.2572 66.332 28.6994 66.332 24.266C66.332 19.805 68.6481 16.3375 72.8218 16.3375ZM72.8462 19.2631C70.7208 19.2631 70.5869 22.0669 70.5869 23.8144C70.5869 25.5658 70.5585 29.3042 72.8218 29.3042C75.0567 29.3042 75.1622 26.2883 75.1622 24.4505C75.1622 23.241 75.1095 21.7959 74.7322 20.6493C74.4078 19.6518 73.7628 19.2631 72.8462 19.2631Z" fill="#111111"/>
<path d="M84.966 31.9588H82.0943C81.8063 31.9391 81.5751 31.7153 81.5751 31.4404L81.571 17.1072C81.5954 16.8441 81.8347 16.6399 82.1267 16.6399H84.7997C85.0512 16.6517 85.258 16.8166 85.3148 17.0404V19.2317H85.3676C86.1747 17.2721 87.3064 16.3375 89.2979 16.3375C90.5918 16.3375 91.8533 16.7891 92.6645 18.0261C93.419 19.1728 93.419 21.1009 93.419 22.4871V31.5072C93.3865 31.7585 93.1472 31.9588 92.8633 31.9588H89.9713C89.7076 31.9391 89.4886 31.7506 89.4602 31.5072V23.724C89.4602 22.1572 89.6468 19.8639 87.6552 19.8639C86.9535 19.8639 86.3086 20.3194 85.9881 21.0105C85.5825 21.8862 85.5298 22.758 85.5298 23.724V31.4404C85.5258 31.7271 85.2743 31.9588 84.966 31.9588Z" fill="#111111"/>
<path d="M46.5422 25.1141V24.5094C44.4574 24.5094 42.2549 24.9413 42.2549 27.321C42.2549 28.5266 42.8998 29.3434 44.0072 29.3434C44.8184 29.3434 45.5444 28.8604 46.0028 28.075C46.5706 27.109 46.5422 26.2019 46.5422 25.1141ZM49.4505 31.9195C49.2598 32.0844 48.984 32.0962 48.769 31.9862C47.8118 31.2165 47.6414 30.8592 47.1141 30.1249C45.5323 31.6878 44.4128 32.1551 42.3604 32.1551C39.9348 32.1551 38.0447 30.706 38.0447 27.8041C38.0447 25.5382 39.3142 23.995 41.1192 23.241C42.6849 22.5734 44.8711 22.4556 46.5422 22.271V21.9098C46.5422 21.2461 46.595 20.4607 46.1934 19.8874C45.8405 19.373 45.1672 19.1609 44.575 19.1609C43.4758 19.1609 42.4942 19.7068 42.2549 20.8377C42.2062 21.089 42.0156 21.3364 41.756 21.3482L38.9573 21.0576C38.722 21.0066 38.4625 20.822 38.5274 20.4725C39.1723 17.1896 42.2346 16.2 44.9766 16.2C46.38 16.2 48.2134 16.5613 49.3207 17.5902C50.7241 18.8586 50.5902 20.5511 50.5902 22.3928V26.7438C50.5902 28.0515 51.15 28.6248 51.6773 29.3316C51.8639 29.5829 51.9044 29.8853 51.6692 30.0738C51.081 30.549 50.0346 31.4325 49.4586 31.9273L49.4505 31.9195Z" fill="#111111"/>
<path d="M8.73511 25.1141V24.5094C6.65026 24.5094 4.44779 24.9413 4.44779 27.321C4.44779 28.5266 5.09271 29.3434 6.20003 29.3434C7.01126 29.3434 7.7373 28.8604 8.19564 28.075C8.7635 27.109 8.73511 26.2018 8.73511 25.1141ZM11.6433 31.9194C11.4527 32.0844 11.1769 32.0961 10.9619 31.9862C10.0047 31.2165 9.83431 30.8592 9.30702 30.1248C7.72513 31.6877 6.60565 32.155 4.55325 32.155C2.12769 32.155 0.237549 30.706 0.237549 27.804C0.237549 25.5382 1.50711 23.9949 3.31208 23.241C4.87774 22.5734 7.06399 22.4556 8.73511 22.271V21.9097C8.73511 21.2461 8.78784 20.4607 8.38628 19.8874C8.0334 19.373 7.36008 19.1609 6.76789 19.1609C5.66869 19.1609 4.6871 19.7067 4.44779 20.8377C4.39912 21.089 4.20848 21.3364 3.94889 21.3482L1.15017 21.0576C0.914919 21.0066 0.655328 20.822 0.720226 20.4725C1.36515 17.1896 4.42751 16.2 7.16945 16.2C8.57286 16.2 10.4062 16.5613 11.5135 17.5901C12.917 18.8585 12.7831 20.551 12.7831 22.3927V26.7438C12.7831 28.0514 13.3429 28.6248 13.8701 29.3316C14.0567 29.5829 14.0973 29.8853 13.862 30.0738C13.2739 30.5489 12.2274 31.4325 11.6515 31.9273L11.6433 31.9194Z" fill="#111111"/>
</g>
<defs>
<clipPath id="clip0_82_1381">
<rect width="92.7" height="54" fill="white" transform="translate(0.449951)"/>
</clipPath>
</defs>
</svg>
