<svg width="91" height="54" viewBox="0 0 91 54" fill="none" xmlns="http://www.w3.org/2000/svg">
<g clip-path="url(#clip0_82_1396)">
<path d="M77.0557 25.0121C75.5514 25.3592 71.5786 25.5521 71.5786 25.5521L71.09 27.1206C71.09 27.1206 73.0572 26.9535 74.4972 27.0949C74.4972 27.0949 74.96 27.0563 75.0114 27.6092C75.0372 28.1749 74.9729 28.7663 74.9729 28.7663C74.9729 28.7663 74.9343 29.1135 74.4586 29.2035C73.9057 29.2935 70.1772 29.4606 70.1772 29.4606L69.5729 31.492C69.5729 31.492 69.3544 31.9549 69.8558 31.8263C70.3186 31.6977 74.2272 30.952 74.7414 31.0549C75.2814 31.1834 75.8986 31.9292 75.7186 32.5977C75.5129 33.4077 71.6043 35.902 69.2386 35.7348C69.2386 35.7348 67.9915 35.812 66.9501 34.1277C65.9472 32.5206 67.2972 29.4992 67.2972 29.4992C67.2972 29.4992 66.6929 28.0849 67.1429 27.5706C67.1429 27.5706 67.4001 27.3521 68.1715 27.2878L69.1358 25.3078C69.1358 25.3078 68.0429 25.3721 67.4001 24.5749C66.8087 23.8035 66.7572 23.4692 67.2201 23.2635C67.7087 23.0064 72.2343 22.1964 75.3457 22.2992C75.3457 22.2992 76.4386 22.1707 77.4029 24.0607C77.4029 24.0607 77.84 24.8321 77.0686 25.0121M65.3301 32.6234C64.9444 33.562 63.8773 34.552 62.5916 33.9477C61.2801 33.3306 59.2102 29.1135 59.2102 29.1135C59.2102 29.1135 58.4387 27.5449 58.2845 27.5963C58.2845 27.5963 58.1173 27.2878 58.0273 29.0106C57.8987 30.7206 58.053 34.0506 57.3459 34.5777C56.703 35.092 55.9316 34.8734 55.4945 34.2691C55.1345 33.6649 54.9802 32.212 55.1859 29.6792C55.4173 27.1463 55.9959 24.4464 56.7288 23.6107C57.5002 22.7621 58.1173 23.3792 58.3487 23.6107C58.3487 23.6107 59.3387 24.5106 61.0101 27.1721L61.293 27.6606C61.293 27.6606 62.8101 30.1935 62.9644 30.1806C62.9644 30.1806 63.093 30.3092 63.1958 30.2063C63.3501 30.1677 63.2987 29.3449 63.2987 29.3449C63.2987 29.3449 63.0158 26.6063 61.6016 21.9778C61.6016 21.9778 61.3959 21.3864 61.5373 20.8207C61.6659 20.3064 62.2187 20.5635 62.2187 20.5635C62.2187 20.5635 64.353 21.5921 65.3944 25.0635C66.423 28.5349 65.7287 31.6849 65.343 32.6234M54.8645 23.7135C54.6588 24.0735 54.5688 24.5749 53.6816 24.7164C53.6816 24.7164 45.0674 25.3206 44.6431 25.9249C44.6431 25.9249 44.3603 26.2849 44.8231 26.3749C45.3117 26.4778 47.266 26.7349 48.1917 26.7863C49.1945 26.7863 52.5631 26.8121 53.7973 28.3292C53.7973 28.3292 54.5045 29.0492 54.4788 30.682C54.4531 32.3534 54.1573 32.9449 53.5016 33.5491C52.8202 34.1149 46.9831 36.7377 43.216 32.7263C43.216 32.7263 41.4932 30.7977 43.8203 29.332C43.8203 29.332 45.4917 28.3035 49.7731 29.4992C49.7731 29.4992 51.0588 29.962 51.0074 30.4377C50.9302 30.952 49.9402 31.4663 48.5003 31.4406C47.1117 31.402 46.0831 30.7335 46.2888 30.8492C46.4817 30.9135 44.7846 30.0263 44.2574 30.6306C43.7432 31.1963 43.8717 31.5306 44.386 31.8777C45.6717 32.6234 50.7245 32.3534 52.2288 30.6692C52.2288 30.6692 52.8331 29.9877 51.9202 29.4349C51.0202 28.9206 48.3974 28.5992 47.3817 28.5606C46.4174 28.5092 42.8046 28.5606 42.2646 27.622C42.2646 27.622 41.7503 26.9535 42.316 25.1278C42.9074 23.1992 47.1117 22.4535 48.9374 22.2992C48.9374 22.2992 53.9516 22.0935 54.8902 23.1221C54.8902 23.1221 55.0188 23.3535 54.8645 23.7007M40.6446 35.0148C40.0403 35.4648 38.7546 35.272 38.3818 34.7577C38.0218 34.3077 37.8932 32.5334 37.9575 29.7435C38.0475 26.8892 38.0861 23.3921 38.7289 22.8264C39.3718 22.2735 39.7575 22.7621 40.0146 23.1349C40.2718 23.5207 40.606 23.9449 40.6575 24.8321C40.7346 25.7321 40.9532 30.3606 40.9532 30.3606C40.9532 30.3606 41.236 34.5777 40.6575 35.0148M41.9303 19.9721C40.156 20.5764 38.9475 20.3835 37.9189 19.9335C37.4689 20.7435 37.1989 20.9878 36.8646 21.0393C36.3504 21.0907 35.9004 20.2678 35.8361 20.0107C35.7332 19.8178 35.4889 19.4707 35.7847 18.6864C34.7818 17.7864 34.7047 16.5779 34.8847 15.7679C35.1161 14.8164 36.8132 11.2422 41.956 10.8179C41.956 10.8179 44.476 10.6379 44.9131 11.975H44.9903C44.9903 11.975 47.4331 11.975 47.3817 14.1607C47.3817 16.3464 44.6817 19.0721 41.9303 20.0107M44.2189 13.7493C42.5989 14.0065 40.1046 16.1664 38.9089 17.9536C40.7475 18.2878 43.9617 18.1593 45.4017 15.2536C45.4017 15.2536 46.0831 13.4279 44.2189 13.7493ZM37.1089 15.1636C36.5947 15.9993 36.5689 16.5007 36.8132 16.835C37.4175 15.935 38.4846 14.5207 40.0918 13.415C38.8575 13.5436 37.8161 14.0579 37.1089 15.1636ZM80.9128 34.9248C79.73 37.8305 78.7271 40.7748 78.1486 45.1848C78.1486 45.1848 78.02 46.0462 77.3129 45.7633C76.6057 45.5062 75.4486 44.349 75.1914 42.7162C74.9343 40.5819 75.8857 36.982 77.8271 32.842C77.2614 31.942 76.8629 30.6049 77.1843 28.7278C77.1843 28.7278 77.6986 25.2564 81.17 22.1192C81.17 22.1192 81.5814 21.7721 81.8128 21.8878C82.0957 22.0164 81.98 23.1221 81.7485 23.6878C81.5428 24.2278 80 26.9021 80 26.9021C80 26.9021 79.0357 28.7278 79.3057 30.1549C81.1314 27.3521 85.2842 21.6692 87.8556 23.4692C89.4885 24.6264 89.4885 28.3549 88.267 30.5149C87.3028 32.2249 84.5771 35.7606 80.9385 34.9377M86.2871 26.1949C85.3356 27.2235 83.6385 29.1778 82.3014 31.8263C83.7157 31.672 85.0914 30.8877 85.5156 30.4892C86.1971 29.8849 87.7656 28.252 87.5213 26.0921C87.5213 26.0921 87.3671 24.9606 86.2871 26.1949ZM28.6876 36.442C24.1362 37.8305 19.8419 37.1877 17.502 36.5705C17.4377 37.522 17.3348 37.9205 17.1805 38.0748C17.0005 38.2805 15.5091 39.1291 14.6863 37.9205C14.3263 37.342 14.1463 36.3005 14.0434 35.3491C8.77204 32.9577 6.32921 29.4349 6.25206 29.3063C6.12349 29.1778 4.92779 27.9306 6.12349 26.3878C7.24205 24.9992 10.9449 23.5978 14.262 23.0449C14.3906 20.2164 14.6991 18.0307 15.0977 17.0664C15.5734 15.9093 16.1777 16.9379 16.7177 17.7093C17.1548 18.2878 17.4248 20.7693 17.4505 22.7492C19.6105 22.6464 20.9219 22.8007 23.3262 23.2635C26.489 23.8035 28.5976 25.4235 28.4304 27.2492C28.2762 29.0492 26.6305 29.7949 25.9876 29.8463C25.3447 29.8977 24.3162 29.422 24.3162 29.422C23.5962 29.0878 24.2519 28.7792 25.0876 28.4192C26.0133 27.9692 25.8076 27.5192 25.8076 27.5192C25.4733 26.4906 21.3719 25.8092 17.2962 25.8092C17.2962 28.0592 17.3862 31.7877 17.4505 33.9606C20.3048 34.5006 22.4391 34.3848 22.4391 34.3848C22.4391 34.3848 32.8533 34.0891 33.149 27.4421C33.4704 20.7821 22.7348 14.405 14.8277 12.3993C6.93349 10.3293 2.45924 11.795 2.07353 11.9879C1.64925 12.1936 2.03496 12.2708 2.03496 12.2708C2.03496 12.2708 2.45924 12.335 3.23066 12.5922C4.00208 12.8493 3.38495 13.235 3.38495 13.235C2.03496 13.6979 0.530687 13.4279 0.234975 12.8108C-0.0607365 12.2065 0.427831 11.6536 1.0064 10.8436C1.54639 10.0079 2.16353 10.0336 2.16353 10.0336C11.9349 6.62652 23.8662 12.7336 23.8662 12.7336C35.0261 18.365 36.9289 24.9864 36.7232 27.5578C36.5432 30.0906 35.5661 34.372 28.6876 36.4548M7.21634 27.2492C6.11064 27.7635 6.88206 28.5863 6.88206 28.5863C8.9649 30.8106 11.5106 32.212 13.9534 33.0863C14.2363 29.2292 14.2106 27.8535 14.2106 25.9121C10.4306 26.1692 8.2449 26.7863 7.21634 27.2492Z" fill="#111111"/>
</g>
<defs>
<clipPath id="clip0_82_1396">
<rect width="90" height="54" fill="white" transform="translate(0.0498047)"/>
</clipPath>
</defs>
</svg>
