<svg width="68" height="54" viewBox="0 0 68 54" fill="none" xmlns="http://www.w3.org/2000/svg">
<g clip-path="url(#clip0_82_1408)">
<path fill-rule="evenodd" clip-rule="evenodd" d="M20.2251 40.6854H12.9606V30.2913H8.24489V40.6854H0.756592V13.896H8.24489V23.8614H12.9606V13.896H20.2251V40.6854Z" fill="#111111"/>
<path fill-rule="evenodd" clip-rule="evenodd" d="M53.5066 32.4545C56.4543 32.4545 58.8441 30.0593 58.8441 27.1038C58.8441 24.1491 56.4543 21.7535 53.5066 21.7535C50.5584 21.7535 48.1689 24.1491 48.1689 27.1038C48.1689 30.0593 50.5584 32.4545 53.5066 32.4545ZM46.7167 27.1038C46.7167 23.3452 49.7564 20.2978 53.5066 20.2978C57.2565 20.2978 60.2968 23.3452 60.2968 27.1038C60.2968 30.8631 57.2565 33.9104 53.5066 33.9104C49.7564 33.9104 46.7167 30.8631 46.7167 27.1038ZM37.2622 27.1038C38.1023 26.9972 39.5029 26.0343 39.9962 25.4196C39.8228 26.1817 39.8096 28.3875 40.0123 29.1496C39.4491 28.2805 38.1159 27.2109 37.2622 27.1038ZM32.3808 19.8983C33.4478 19.8983 34.2881 20.9542 34.2881 22.1575C34.2881 23.3608 33.4478 24.4173 32.3808 24.4173H28.7133V19.8983H32.3808ZM32.3674 29.9381C33.4343 29.9381 34.2747 30.9945 34.2747 32.1975C34.2747 33.4009 33.4343 34.4569 32.3674 34.4569H28.6999V29.9381H32.3674ZM53.5021 40.8175C60.9751 40.8146 67.0565 34.5906 67.0548 27.0985C67.0534 19.4485 60.9751 13.5059 53.5021 13.5002C46.0377 13.4948 42.2238 19.0025 41.2814 21.2257C41.2902 17.8884 38.0088 13.9492 34.1704 13.945H21.8037V40.6844L33.3337 40.6866C37.9823 40.6866 41.2901 36.649 41.2958 33.1867C42.3569 35.3657 46.0377 40.8201 53.5021 40.8175Z" fill="#111111"/>
</g>
<defs>
<clipPath id="clip0_82_1408">
<rect width="66.6" height="54" fill="white" transform="translate(0.850098)"/>
</clipPath>
</defs>
</svg>
