<svg width="108" height="54" viewBox="0 0 108 54" fill="none" xmlns="http://www.w3.org/2000/svg">
<g clip-path="url(#clip0_82_1403)">
<path d="M15.6128 39.5436C14.0097 39.8251 12.3785 39.9095 10.691 40.1343L5.54402 25.0594V40.7813C3.94095 40.95 2.47849 41.175 0.959717 41.4V12.6H5.23483L11.0847 28.9409V12.6H15.6128V39.5436ZM24.4722 23.1469C26.2161 23.1469 28.8879 23.0625 30.491 23.0625V27.5624C28.494 27.5624 26.1598 27.5624 24.4722 27.6468V34.3407C27.1161 34.172 29.7598 33.9468 32.4316 33.8624V38.1934L19.9721 39.1779V12.6H32.4316V17.1H24.4722V23.1469ZM49.1659 17.1001H44.4972V37.8001C42.9784 37.8001 41.4597 37.8001 39.9974 37.8562V17.1001H35.3287V12.6H49.1661L49.1659 17.1001ZM56.4784 22.8376H62.6378V27.3375H56.4784V37.547H52.0624V12.6H64.6347V17.1H56.4784V22.8376ZM71.9471 33.6094C74.5066 33.6655 77.0939 33.8627 79.5972 34.0031V38.4469C75.5754 38.1936 71.5534 37.9408 67.4472 37.8562V12.6H71.9471V33.6094ZM83.394 38.7563C84.8284 38.8408 86.3471 38.9252 87.8096 39.0936V12.6H83.394V38.7563ZM107.525 12.6L101.816 26.2969L107.525 41.4C105.838 41.175 104.15 40.8656 102.463 40.5843L99.2285 32.2595L95.9381 39.9095C94.3066 39.628 92.7316 39.5436 91.1006 39.3186L96.8943 26.128L91.6629 12.6H96.5002L99.4534 20.1656L102.604 12.6L107.525 12.6Z" fill="#111111"/>
</g>
<defs>
<clipPath id="clip0_82_1403">
<rect width="107.1" height="54" fill="white" transform="translate(0.75)"/>
</clipPath>
</defs>
</svg>
