<svg width="30" height="30" viewBox="0 0 30 30" fill="none" xmlns="http://www.w3.org/2000/svg">
<g clip-path="url(#clip0_8_428)">
<path d="M14.9999 0.0491638C6.75574 0.0491638 0.0490723 6.75583 0.0490723 15C0.0490723 23.2442 6.75574 29.9508 14.9999 29.9508C23.2441 29.9508 29.9507 23.2442 29.9507 15C29.9507 6.75583 23.2441 0.0491638 14.9999 0.0491638ZM7.95324 5.5325L17.3099 13.4283H3.30074C3.73157 10.2058 5.46324 7.39 7.95324 5.5325ZM3.30074 16.5717H17.2591L7.95157 24.4667C5.46241 22.6083 3.73157 19.7933 3.30074 16.5717ZM14.9999 26.8075C13.5632 26.8075 12.1866 26.5492 10.9124 26.0775L23.6691 15.2575C23.8474 15.1067 23.8466 14.8317 23.6682 14.6808L10.9174 3.92083C12.1899 3.45 13.5657 3.1925 14.9999 3.1925C21.5107 3.1925 26.8074 8.48916 26.8074 15C26.8074 21.5108 21.5107 26.8075 14.9999 26.8075Z" fill="#DD6635"/>
</g>
<defs>
<clipPath id="clip0_8_428">
<rect width="30" height="30" fill="white"/>
</clipPath>
</defs>
</svg>
