<svg width="55" height="40" viewBox="0 0 55 40" fill="none" xmlns="http://www.w3.org/2000/svg">
<path d="M21.927 4.74807L9.60848 15.5852H22.7894C24.0212 15.5852 24.6371 16.2081 24.6371 17.4537V38.1315C24.6371 39.3772 24.0212 40 22.7894 40H1.84779C0.615931 40 0 39.3772 0 38.1315V17.4537C0 16.4572 0.615931 15.4607 1.84779 14.4642L17.8619 0.388296C19.8329 -1.35562 23.1589 3.25329 21.927 4.74807ZM52.2899 4.74807L39.9713 15.5852H53.1522C54.3841 15.5852 55 16.2081 55 17.4537V38.1315C55 39.3772 54.3841 40 53.1522 40H32.2107C30.9788 40 30.3629 39.3772 30.3629 38.1315V17.4537C30.3629 16.4572 30.9788 15.4607 32.2107 14.4642L48.2248 0.388296C50.1958 -1.35562 53.5218 3.25329 52.2899 4.74807Z" fill="white"/>
</svg>
