<svg width="30" height="30" viewBox="0 0 30 30" fill="none" xmlns="http://www.w3.org/2000/svg">
<g clip-path="url(#clip0_8_436)">
<path d="M15.0001 0.0274963C6.73092 0.0274963 0.0275879 6.73083 0.0275879 15C0.0275879 23.2692 6.73092 29.9725 15.0001 29.9725C23.2693 29.9725 29.9726 23.2692 29.9726 15C29.9726 6.73083 23.2693 0.0274963 15.0001 0.0274963ZM15.0001 3.405C20.8593 3.405 25.7151 7.775 26.4859 13.4258H3.51425C4.28509 7.77416 9.14092 3.405 15.0001 3.405ZM15.0001 26.595C9.14092 26.595 4.28509 22.225 3.51425 16.5742H26.4851C25.7151 22.2258 20.8593 26.595 15.0001 26.595Z" fill="#DD6635"/>
</g>
<defs>
<clipPath id="clip0_8_436">
<rect width="30" height="30" fill="white"/>
</clipPath>
</defs>
</svg>
