<svg width="30" height="30" viewBox="0 0 30 30" fill="none" xmlns="http://www.w3.org/2000/svg">
<g clip-path="url(#clip0_8_430)">
<path d="M14.9999 29.64C11.7749 29.64 8.62489 28.5675 6.08239 26.6133L18.2441 14.4517L17.5949 23.8892C17.5682 24.2792 17.8524 24.6142 18.2416 24.65L20.4732 24.8592C20.4957 24.8617 20.5182 24.8625 20.5407 24.8625C20.9099 24.8625 21.2232 24.5742 21.2532 24.2058L22.5699 8.17749C22.5866 7.97415 22.5174 7.77249 22.3791 7.62249C22.2407 7.47249 22.0449 7.38665 21.8416 7.38665C21.8207 7.38665 21.7999 7.38749 21.7791 7.38915L5.79573 8.74332C5.60406 8.75999 5.43073 8.84999 5.30739 8.99749C5.18406 9.14499 5.12573 9.33165 5.14406 9.52249L5.35156 11.7575C5.38573 12.1275 5.69239 12.4067 6.06323 12.4067C6.07989 12.4067 6.09739 12.4058 6.11489 12.405L15.5832 11.7242L3.38823 23.9192C1.27739 21.1775 0.209892 17.775 0.376559 14.2933C0.551559 10.6533 2.06823 7.22749 4.64739 4.64832C7.41323 1.88249 11.0891 0.359985 14.9999 0.359985C18.9107 0.359985 22.5866 1.88249 25.3524 4.64832C31.0607 10.3567 31.0607 19.6442 25.3524 25.3525C22.5874 28.1175 18.9107 29.64 14.9999 29.64Z" fill="#DD6635"/>
<path d="M15 0.72C18.8142 0.72 22.4 2.205 25.0975 4.9025C27.795 7.6 29.28 11.1858 29.28 15C29.28 18.8142 27.795 22.4 25.0975 25.0975C22.4009 27.7942 18.8142 29.28 15 29.28C11.9925 29.28 9.05085 28.3242 6.63168 26.5733L17.8192 15.3858L17.2358 23.8642C17.195 24.4508 17.6225 24.9533 18.2083 25.0083L20.44 25.2175C20.4733 25.2208 20.5075 25.2225 20.5408 25.2225C21.0958 25.2225 21.5667 24.7892 21.6117 24.235L22.9284 8.20667C22.9534 7.90333 22.8492 7.60167 22.6433 7.37833C22.4375 7.155 22.145 7.02667 21.8417 7.02667C21.8109 7.02667 21.78 7.02833 21.7492 7.03083L5.76585 8.385C5.47835 8.40917 5.21752 8.545 5.03168 8.76667C4.84668 8.98833 4.75918 9.26833 4.78585 9.55583L4.99335 11.7908C5.04502 12.3467 5.50502 12.7667 6.06335 12.7667C6.08835 12.7667 6.11418 12.7658 6.14085 12.7642L14.645 12.1542L3.42835 23.3708C1.53252 20.7558 0.580016 17.5683 0.736683 14.31C0.907516 10.7592 2.38668 7.41833 4.90252 4.9025C7.59918 2.205 11.1858 0.72 15 0.72ZM15 0C11.1608 0 7.32252 1.46417 4.39335 4.39333C-1.09582 9.8825 -1.44082 18.5683 3.35752 24.4592L16.5208 11.2958L6.09002 12.0442C6.08168 12.045 6.07252 12.045 6.06418 12.045C5.88252 12.045 5.72752 11.9067 5.71085 11.7225L5.50335 9.4875C5.48502 9.29083 5.63085 9.1175 5.82668 9.10083L21.81 7.74667C21.8208 7.74583 21.8317 7.745 21.8417 7.745C22.0558 7.745 22.2292 7.92833 22.2108 8.14667L20.8942 24.175C20.8792 24.3608 20.7234 24.5008 20.5408 24.5008C20.53 24.5008 20.5183 24.5 20.5075 24.4992L18.2758 24.29C18.0842 24.2717 17.9417 24.1042 17.955 23.9117L18.67 13.515L5.54252 26.6442C8.29002 28.8817 11.6458 30 15 30C18.8392 30 22.6775 28.5358 25.6058 25.6067C31.4633 19.7492 31.4633 10.2517 25.6058 4.39333C22.6775 1.46417 18.8392 0 15 0Z" fill="#DD6635"/>
</g>
<defs>
<clipPath id="clip0_8_430">
<rect width="30" height="30" fill="white"/>
</clipPath>
</defs>
</svg>
