<svg width="95" height="95" viewBox="0 0 95 95" fill="none" xmlns="http://www.w3.org/2000/svg">
<path fill-rule="evenodd" clip-rule="evenodd" d="M44.679 0C41.8993 0 39.6459 2.2534 39.6459 5.03311V28.4255L23.1555 11.9352C21.19 9.96962 18.0032 9.96962 16.0376 11.9352L12.0478 15.925C10.0823 17.8905 10.0823 21.0773 12.0478 23.0429L28.6509 39.6459H5.03311C2.2534 39.6459 0 41.8993 0 44.679V50.3214C0 53.1012 2.2534 55.3546 5.03311 55.3546H28.4251L11.9352 71.8445C9.96962 73.81 9.96962 76.9968 11.9352 78.9624L15.925 82.9522C17.8905 84.9177 21.0773 84.9177 23.0429 82.9522L39.6459 66.3491V89.9669C39.6459 92.7466 41.8993 95 44.679 95H50.3214C53.1012 95 55.3546 92.7466 55.3546 89.9669V66.3496L72.1051 83.1001C74.0706 85.0657 77.2574 85.0657 79.223 83.1001L83.2128 79.1103C85.1783 77.1448 85.1783 73.958 83.2128 71.9924L66.5749 55.3546H89.9669C92.7466 55.3546 95 53.1012 95 50.3214V44.679C95 41.8993 92.7466 39.6459 89.9669 39.6459H66.3491L83.1001 22.8949C85.0657 20.9294 85.0657 17.7426 83.1001 15.777L79.1103 11.7872C77.1448 9.82166 73.958 9.82166 71.9924 11.7872L55.3546 28.4251V5.03311C55.3546 2.2534 53.1012 0 50.3214 0H44.679Z" fill="white"/>
</svg>
